<svg xmlns="http://www.w3.org/2000/svg" width="256" height="256" viewBox="0 0 256 256" fill="none">
  <defs>
    <linearGradient id="g" x1="0" y1="0" x2="1" y2="1">
      <stop offset="0" stop-color="#2F80ED"/>
      <stop offset="1" stop-color="#4EA1FF"/>
    </linearGradient>
  </defs>
  <rect x="18" y="18" width="220" height="220" rx="58" fill="#0B1020"/>
  <path d="M128 50c-30.7 0-55.6 24.9-55.6 55.6 0 41.9 35.1 70.7 55.6 114.4 20.4-43.7 55.6-72.5 55.6-114.4C183.6 74.9 158.7 50 128 50Z" fill="url(#g)" opacity="0.95"/>
  <path d="M128 74c-18.8 0-34 15.2-34 34 0 25.6 21.5 43.2 34 70.2 12.5-27 34-44.6 34-70.2 0-18.8-15.2-34-34-34Z" fill="#A855F7" opacity="0.25"/>
</svg>

